<mxfile host="app.diagrams.net" modified="2022-06-17T03:29:44.774Z" agent="5.0 (Windows NT 10.0; Win64; x64) AppleWebKit/537.36 (KHTML, like Gecko) Chrome/102.0.5005.63 Safari/537.36" etag="koIrkLVEz1Wx6Bp1Qvgt" version="17.4.3" type="github">
  <diagram id="PftOgh-4Z8WECdvbYjnm" name="Page-1">
    <mxGraphModel dx="2249" dy="804" grid="1" gridSize="10" guides="1" tooltips="1" connect="1" arrows="1" fold="1" page="1" pageScale="1" pageWidth="827" pageHeight="1169" math="0" shadow="0">
      <root>
        <mxCell id="0" />
        <mxCell id="1" parent="0" />
        <mxCell id="gpLDlC7fJZuLoj5VYxxg-15" style="edgeStyle=orthogonalEdgeStyle;rounded=0;orthogonalLoop=1;jettySize=auto;html=1;exitX=0.5;exitY=1;exitDx=0;exitDy=0;entryX=0.5;entryY=0;entryDx=0;entryDy=0;fontFamily=Courier New;fontSize=18;" parent="1" source="gpLDlC7fJZuLoj5VYxxg-1" target="gpLDlC7fJZuLoj5VYxxg-2" edge="1">
          <mxGeometry relative="1" as="geometry" />
        </mxCell>
        <mxCell id="gpLDlC7fJZuLoj5VYxxg-1" value="&lt;font style=&quot;font-size: 18px&quot;&gt;query&lt;/font&gt;" style="rounded=1;whiteSpace=wrap;html=1;" parent="1" vertex="1">
          <mxGeometry x="335" y="180" width="110" height="40" as="geometry" />
        </mxCell>
        <mxCell id="gpLDlC7fJZuLoj5VYxxg-26" style="edgeStyle=orthogonalEdgeStyle;rounded=0;orthogonalLoop=1;jettySize=auto;html=1;entryX=0.5;entryY=0;entryDx=0;entryDy=0;fontFamily=Courier New;fontSize=14;exitX=0.5;exitY=1;exitDx=0;exitDy=0;" parent="1" source="gpLDlC7fJZuLoj5VYxxg-2" target="gpLDlC7fJZuLoj5VYxxg-4" edge="1">
          <mxGeometry relative="1" as="geometry" />
        </mxCell>
        <mxCell id="gpLDlC7fJZuLoj5VYxxg-27" style="edgeStyle=orthogonalEdgeStyle;rounded=0;orthogonalLoop=1;jettySize=auto;html=1;entryX=0.5;entryY=0;entryDx=0;entryDy=0;fontFamily=Courier New;fontSize=14;" parent="1" source="gpLDlC7fJZuLoj5VYxxg-2" target="gpLDlC7fJZuLoj5VYxxg-5" edge="1">
          <mxGeometry relative="1" as="geometry" />
        </mxCell>
        <mxCell id="gpLDlC7fJZuLoj5VYxxg-28" style="edgeStyle=orthogonalEdgeStyle;rounded=0;orthogonalLoop=1;jettySize=auto;html=1;entryX=0.5;entryY=0;entryDx=0;entryDy=0;fontFamily=Courier New;fontSize=14;" parent="1" source="gpLDlC7fJZuLoj5VYxxg-2" target="gpLDlC7fJZuLoj5VYxxg-6" edge="1">
          <mxGeometry relative="1" as="geometry" />
        </mxCell>
        <mxCell id="gpLDlC7fJZuLoj5VYxxg-29" style="edgeStyle=orthogonalEdgeStyle;rounded=0;orthogonalLoop=1;jettySize=auto;html=1;entryX=0.5;entryY=0;entryDx=0;entryDy=0;fontFamily=Courier New;fontSize=14;exitX=0.5;exitY=1;exitDx=0;exitDy=0;" parent="1" source="gpLDlC7fJZuLoj5VYxxg-2" target="gpLDlC7fJZuLoj5VYxxg-7" edge="1">
          <mxGeometry relative="1" as="geometry" />
        </mxCell>
        <mxCell id="gpLDlC7fJZuLoj5VYxxg-2" value="&lt;font face=&quot;Courier New&quot;&gt;&lt;font style=&quot;font-size: 18px&quot;&gt;&lt;b&gt;句向量表征模型&lt;/b&gt;&lt;/font&gt;&lt;br&gt;&lt;font style=&quot;font-size: 14px&quot;&gt;一次训练，固定表征层，供下游任务使用&lt;/font&gt;&lt;/font&gt;" style="rounded=0;whiteSpace=wrap;html=1;fontSize=18;fillColor=#ffe6cc;strokeColor=#d79b00;" parent="1" vertex="1">
          <mxGeometry x="220" y="270" width="340" height="60" as="geometry" />
        </mxCell>
        <mxCell id="gpLDlC7fJZuLoj5VYxxg-4" value="" style="ellipse;whiteSpace=wrap;html=1;aspect=fixed;fontFamily=Courier New;fontSize=18;" parent="1" vertex="1">
          <mxGeometry x="150" y="380" width="50" height="50" as="geometry" />
        </mxCell>
        <mxCell id="gpLDlC7fJZuLoj5VYxxg-5" value="" style="ellipse;whiteSpace=wrap;html=1;aspect=fixed;fontFamily=Courier New;fontSize=18;" parent="1" vertex="1">
          <mxGeometry x="250" y="380" width="50" height="50" as="geometry" />
        </mxCell>
        <mxCell id="gpLDlC7fJZuLoj5VYxxg-6" value="" style="ellipse;whiteSpace=wrap;html=1;aspect=fixed;fontFamily=Courier New;fontSize=18;" parent="1" vertex="1">
          <mxGeometry x="500" y="380" width="50" height="50" as="geometry" />
        </mxCell>
        <mxCell id="gpLDlC7fJZuLoj5VYxxg-7" value="" style="ellipse;whiteSpace=wrap;html=1;aspect=fixed;fontFamily=Courier New;fontSize=18;" parent="1" vertex="1">
          <mxGeometry x="590" y="380" width="50" height="50" as="geometry" />
        </mxCell>
        <mxCell id="gpLDlC7fJZuLoj5VYxxg-16" value="Task_1" style="text;html=1;align=center;verticalAlign=middle;resizable=0;points=[];autosize=1;strokeColor=none;fillColor=none;fontSize=18;fontFamily=Courier New;" parent="1" vertex="1">
          <mxGeometry x="120" y="455" width="80" height="30" as="geometry" />
        </mxCell>
        <mxCell id="gpLDlC7fJZuLoj5VYxxg-17" value="Task_2" style="text;html=1;align=center;verticalAlign=middle;resizable=0;points=[];autosize=1;strokeColor=none;fillColor=none;fontSize=18;fontFamily=Courier New;" parent="1" vertex="1">
          <mxGeometry x="235" y="455" width="80" height="30" as="geometry" />
        </mxCell>
        <mxCell id="gpLDlC7fJZuLoj5VYxxg-18" value="Task_119" style="text;html=1;align=center;verticalAlign=middle;resizable=0;points=[];autosize=1;strokeColor=none;fillColor=none;fontSize=18;fontFamily=Courier New;" parent="1" vertex="1">
          <mxGeometry x="470" y="450" width="100" height="30" as="geometry" />
        </mxCell>
        <mxCell id="gpLDlC7fJZuLoj5VYxxg-19" value="Task_120" style="text;html=1;align=center;verticalAlign=middle;resizable=0;points=[];autosize=1;strokeColor=none;fillColor=none;fontSize=18;fontFamily=Courier New;" parent="1" vertex="1">
          <mxGeometry x="565" y="450" width="100" height="30" as="geometry" />
        </mxCell>
        <mxCell id="gpLDlC7fJZuLoj5VYxxg-30" style="edgeStyle=orthogonalEdgeStyle;rounded=0;orthogonalLoop=1;jettySize=auto;html=1;entryX=0.5;entryY=0;entryDx=0;entryDy=0;fontFamily=Courier New;fontSize=14;" parent="1" source="gpLDlC7fJZuLoj5VYxxg-20" target="gpLDlC7fJZuLoj5VYxxg-23" edge="1">
          <mxGeometry relative="1" as="geometry" />
        </mxCell>
        <mxCell id="gpLDlC7fJZuLoj5VYxxg-20" value=".........." style="text;html=1;align=center;verticalAlign=middle;resizable=0;points=[];autosize=1;strokeColor=none;fillColor=none;fontSize=18;fontFamily=Courier New;" parent="1" vertex="1">
          <mxGeometry x="340" y="455" width="120" height="30" as="geometry" />
        </mxCell>
        <mxCell id="gpLDlC7fJZuLoj5VYxxg-22" value="&lt;b&gt;二分类&lt;/b&gt;" style="text;html=1;align=center;verticalAlign=middle;resizable=0;points=[];autosize=1;strokeColor=none;fillColor=none;fontSize=18;fontFamily=Courier New;" parent="1" vertex="1">
          <mxGeometry x="125" y="495" width="70" height="30" as="geometry" />
        </mxCell>
        <mxCell id="gpLDlC7fJZuLoj5VYxxg-31" style="edgeStyle=orthogonalEdgeStyle;rounded=0;orthogonalLoop=1;jettySize=auto;html=1;fontFamily=Courier New;fontSize=14;" parent="1" source="gpLDlC7fJZuLoj5VYxxg-23" target="gpLDlC7fJZuLoj5VYxxg-25" edge="1">
          <mxGeometry relative="1" as="geometry" />
        </mxCell>
        <mxCell id="gpLDlC7fJZuLoj5VYxxg-23" value="&lt;b&gt;结果RANK&lt;/b&gt;&lt;br&gt;&lt;font style=&quot;font-size: 14px&quot;&gt;&lt;b&gt;多标签，多分类，多层级&lt;/b&gt;&lt;br&gt;&lt;div style=&quot;text-align: left&quot;&gt;&lt;span&gt;1：模型输出多个标签下的分类结果&lt;/span&gt;&lt;/div&gt;&lt;/font&gt;&lt;font style=&quot;font-size: 14px&quot;&gt;&lt;div style=&quot;text-align: left&quot;&gt;&lt;span&gt;2：结合规则引擎，根据技能优先级选取对应标签结果&lt;/span&gt;&lt;/div&gt;&lt;div style=&quot;text-align: left&quot;&gt;&lt;span&gt;3：多层级映射，多个百科子标签在缺乏意图情况可映射为百科&lt;/span&gt;&lt;/div&gt;&lt;/font&gt;" style="rounded=0;whiteSpace=wrap;html=1;fontFamily=Courier New;fontSize=18;fillColor=#ffe6cc;strokeColor=#d79b00;" parent="1" vertex="1">
          <mxGeometry x="125" y="560" width="550" height="100" as="geometry" />
        </mxCell>
        <mxCell id="gpLDlC7fJZuLoj5VYxxg-25" value="&lt;font style=&quot;font-size: 18px&quot;&gt;result&lt;/font&gt;" style="rounded=1;whiteSpace=wrap;html=1;" parent="1" vertex="1">
          <mxGeometry x="345" y="710" width="110" height="40" as="geometry" />
        </mxCell>
        <mxCell id="gpLDlC7fJZuLoj5VYxxg-32" value="" style="rounded=0;whiteSpace=wrap;html=1;fontFamily=Courier New;fontSize=14;align=left;fillColor=#dae8fc;strokeColor=#6c8ebf;dashed=1;" parent="1" vertex="1">
          <mxGeometry x="-420" y="260" width="260" height="380" as="geometry" />
        </mxCell>
        <mxCell id="gpLDlC7fJZuLoj5VYxxg-33" value="&lt;b&gt;Embedding Layer&lt;/b&gt;&lt;br&gt;[dim=768]" style="rounded=0;whiteSpace=wrap;html=1;fontFamily=Courier New;fontSize=14;align=center;" parent="1" vertex="1">
          <mxGeometry x="-390" y="290" width="200" height="40" as="geometry" />
        </mxCell>
        <mxCell id="gpLDlC7fJZuLoj5VYxxg-34" value="&lt;b&gt;12-Layer Transformer Encoder&lt;/b&gt;" style="rounded=0;whiteSpace=wrap;html=1;fontFamily=Courier New;fontSize=14;align=center;" parent="1" vertex="1">
          <mxGeometry x="-390" y="360" width="200" height="190" as="geometry" />
        </mxCell>
        <mxCell id="gpLDlC7fJZuLoj5VYxxg-40" style="edgeStyle=orthogonalEdgeStyle;rounded=0;orthogonalLoop=1;jettySize=auto;html=1;fontFamily=Courier New;fontSize=14;dashed=1;" parent="1" source="gpLDlC7fJZuLoj5VYxxg-35" edge="1">
          <mxGeometry relative="1" as="geometry">
            <mxPoint x="-290" y="680" as="targetPoint" />
          </mxGeometry>
        </mxCell>
        <mxCell id="gpLDlC7fJZuLoj5VYxxg-35" value="[CLS]Token Embedding" style="rounded=0;whiteSpace=wrap;html=1;fontFamily=Courier New;fontSize=14;align=center;" parent="1" vertex="1">
          <mxGeometry x="-390" y="560" width="200" height="40" as="geometry" />
        </mxCell>
        <mxCell id="gpLDlC7fJZuLoj5VYxxg-38" value="" style="shape=flexArrow;endArrow=classic;html=1;rounded=0;fontFamily=Courier New;fontSize=14;width=13;endSize=5.09;exitX=1.004;exitY=0.111;exitDx=0;exitDy=0;exitPerimeter=0;" parent="1" source="gpLDlC7fJZuLoj5VYxxg-32" edge="1">
          <mxGeometry width="50" height="50" relative="1" as="geometry">
            <mxPoint x="75" y="330" as="sourcePoint" />
            <mxPoint x="-80" y="302" as="targetPoint" />
          </mxGeometry>
        </mxCell>
        <mxCell id="gpLDlC7fJZuLoj5VYxxg-41" value="MEAN—POOLING" style="text;html=1;align=center;verticalAlign=middle;resizable=0;points=[];autosize=1;strokeColor=none;fillColor=none;fontSize=14;fontFamily=Courier New;" parent="1" vertex="1">
          <mxGeometry x="-290" y="610" width="120" height="20" as="geometry" />
        </mxCell>
        <mxCell id="gpLDlC7fJZuLoj5VYxxg-42" value="自研预训练模型" style="text;html=1;align=center;verticalAlign=middle;resizable=0;points=[];autosize=1;strokeColor=none;fillColor=none;fontSize=14;fontFamily=Courier New;" parent="1" vertex="1">
          <mxGeometry x="-270" y="260" width="110" height="20" as="geometry" />
        </mxCell>
        <mxCell id="gpLDlC7fJZuLoj5VYxxg-43" value="L2 Logits Loss" style="rounded=0;whiteSpace=wrap;html=1;fontFamily=Courier New;fontSize=14;align=center;fillColor=#f8cecc;strokeColor=#b85450;" parent="1" vertex="1">
          <mxGeometry x="-375" y="680" width="170" height="30" as="geometry" />
        </mxCell>
        <mxCell id="gpLDlC7fJZuLoj5VYxxg-48" style="edgeStyle=orthogonalEdgeStyle;rounded=0;orthogonalLoop=1;jettySize=auto;html=1;exitX=1;exitY=0.5;exitDx=0;exitDy=0;exitPerimeter=0;entryX=0;entryY=0.5;entryDx=0;entryDy=0;dashed=1;fontFamily=Courier New;fontSize=14;" parent="1" source="gpLDlC7fJZuLoj5VYxxg-45" target="gpLDlC7fJZuLoj5VYxxg-46" edge="1">
          <mxGeometry relative="1" as="geometry" />
        </mxCell>
        <mxCell id="gpLDlC7fJZuLoj5VYxxg-45" value="Traing Data" style="shape=cylinder3;whiteSpace=wrap;html=1;boundedLbl=1;backgroundOutline=1;size=15;fontFamily=Courier New;fontSize=14;align=center;fillColor=#f8cecc;strokeColor=#b85450;" parent="1" vertex="1">
          <mxGeometry x="-440" y="160" width="80" height="80" as="geometry" />
        </mxCell>
        <mxCell id="gpLDlC7fJZuLoj5VYxxg-47" style="edgeStyle=orthogonalEdgeStyle;rounded=0;orthogonalLoop=1;jettySize=auto;html=1;exitX=0.5;exitY=1;exitDx=0;exitDy=0;entryX=0.5;entryY=0;entryDx=0;entryDy=0;dashed=1;fontFamily=Courier New;fontSize=14;" parent="1" source="gpLDlC7fJZuLoj5VYxxg-46" target="gpLDlC7fJZuLoj5VYxxg-33" edge="1">
          <mxGeometry relative="1" as="geometry" />
        </mxCell>
        <mxCell id="gpLDlC7fJZuLoj5VYxxg-46" value="query" style="rounded=0;whiteSpace=wrap;html=1;fontFamily=Courier New;fontSize=14;align=center;" parent="1" vertex="1">
          <mxGeometry x="-345" y="180" width="110" height="40" as="geometry" />
        </mxCell>
        <mxCell id="dAkLeIfp0nBXh-nY8zJT-1" value="&lt;b&gt;6-Layer Transformer Encoder&lt;/b&gt;" style="rounded=0;whiteSpace=wrap;html=1;fontFamily=Courier New;fontSize=14;align=center;fillColor=#d5e8d4;strokeColor=#82b366;" vertex="1" parent="1">
          <mxGeometry x="-75" y="220" width="200" height="190" as="geometry" />
        </mxCell>
        <mxCell id="dAkLeIfp0nBXh-nY8zJT-2" value="" style="shape=flexArrow;endArrow=classic;html=1;rounded=0;fontFamily=Courier New;fontSize=14;width=13;endSize=5.09;exitX=1.004;exitY=0.111;exitDx=0;exitDy=0;exitPerimeter=0;" edge="1" parent="1">
          <mxGeometry width="50" height="50" relative="1" as="geometry">
            <mxPoint x="135.51999999999998" y="299.68000000000006" as="sourcePoint" />
            <mxPoint x="214.48000000000002" y="299.5" as="targetPoint" />
          </mxGeometry>
        </mxCell>
        <mxCell id="dAkLeIfp0nBXh-nY8zJT-3" value="模型蒸馏" style="text;html=1;align=center;verticalAlign=middle;resizable=0;points=[];autosize=1;strokeColor=none;fillColor=none;" vertex="1" parent="1">
          <mxGeometry x="-150" y="260" width="60" height="20" as="geometry" />
        </mxCell>
      </root>
    </mxGraphModel>
  </diagram>
</mxfile>
